<svg id="Layer_1" data-name="Layer 1" xmlns="http://www.w3.org/2000/svg" xmlns:xlink="http://www.w3.org/1999/xlink" viewBox="0 0 320 320"><defs><style>.cls-1{fill:none;}.cls-2{fill:#f37046;}.cls-3{clip-path:url(#clip-path);}.cls-4{fill:#36c2d6;}.cls-5{fill:#343e48;}</style><clipPath id="clip-path" transform="translate(-240 -210)"><rect class="cls-1" x="240.05" y="210.08" width="319.95" height="319.92"/></clipPath></defs><g id="NewGroupe0"><g id="NewGroup33-0"><path class="cls-2" d="M461.34,319.76a6.77,6.77,0,1,1,6.77-6.77,6.78,6.78,0,0,1-6.77,6.77Zm-58.25-3.16H369.92l-4.18-7.52h37.35a3.76,3.76,0,1,1,0,7.52Zm-62.09,0a3.76,3.76,0,1,1,0-7.52h16.14l4.17,7.52Zm135.27-25.21H323.88a8.85,8.85,0,0,0-8.85,8.85v25.58a8.85,8.85,0,0,0,8.85,8.85H476.27a8.85,8.85,0,0,0,8.85-8.85V300.24a8.85,8.85,0,0,0-8.85-8.85Z" transform="translate(-240 -210)"/><path class="cls-2" d="M461.34,376.59a6.78,6.78,0,1,1,6.77-6.78,6.79,6.79,0,0,1-6.77,6.78Zm-58.25-2.79h-1.42l-4.18-7.53h5.6a3.77,3.77,0,0,1,0,7.53Zm-62.09,0a3.77,3.77,0,1,1,0-7.53h47.89l4.17,7.53Zm135.27-25.21H323.88a8.84,8.84,0,0,0-8.85,8.84V383a8.84,8.84,0,0,0,8.85,8.84H476.27a8.84,8.84,0,0,0,8.85-8.84V357.43a8.84,8.84,0,0,0-8.85-8.84Z" transform="translate(-240 -210)"/><path class="cls-2" d="M461.34,433.41a6.78,6.78,0,1,1,6.77-6.78,6.79,6.79,0,0,1-6.77,6.78Zm-58.25-2H341a3.76,3.76,0,1,1,0-7.52h62.09a3.76,3.76,0,1,1,0,7.52Zm73.18-25.58H323.88a8.84,8.84,0,0,0-8.85,8.84v25.59a8.84,8.84,0,0,0,8.85,8.84H476.27a8.84,8.84,0,0,0,8.85-8.84V414.63a8.84,8.84,0,0,0-8.85-8.84Z" transform="translate(-240 -210)"/><g class="cls-3"><path class="cls-4" d="M400,496.81A126.81,126.81,0,1,1,526.81,370,127,127,0,0,1,400,496.81Zm123.78-179.1A134.74,134.74,0,1,0,534.34,370a133.9,133.9,0,0,0-10.56-52.29Z" transform="translate(-240 -210)"/><path class="cls-4" d="M400,522.47c-84.07,0-152.47-68.4-152.47-152.47S315.93,217.53,400,217.53,552.47,285.93,552.47,370,484.07,522.47,400,522.47ZM547.42,307.72A160.46,160.46,0,1,0,560,370a159.47,159.47,0,0,0-12.58-62.28Z" transform="translate(-240 -210)"/></g><path class="cls-5" d="M377.94,331.05l-8-14.45-4.18-7.52-7.64-13.77H475.82a5.46,5.46,0,0,1,5.46,5.45V325.6a5.46,5.46,0,0,1-5.46,5.45H377.94Zm-53.76,0a5.46,5.46,0,0,1-5.46-5.45V300.76a5.46,5.46,0,0,1,5.46-5.45h25.31l7.65,13.77,4.17,7.52,8,14.45Zm69.26,21.08h82.38a5.46,5.46,0,0,1,5.46,5.45v24.84a5.46,5.46,0,0,1-5.46,5.45H409.48l-7.81-14.07-4.18-7.53-7.85-14.14Zm-69.26,35.74a5.46,5.46,0,0,1-5.46-5.45V357.58c0-2.12.1-3.3.66-3.86s2.27-1.59,8.56-1.59H381l7.86,14.14,4.17,7.53,7.82,14.07ZM429.23,409h46.59a5.46,5.46,0,0,1,5.46,5.45v24.84a5.46,5.46,0,0,1-5.46,5.45H441L421.18,409h8.05Zm-105,35.74a5.46,5.46,0,0,1-5.46-5.45V414.4a5.46,5.46,0,0,1,5.46-5.45h88.4l19.84,35.74Zm81.1-106.11h70.54a13,13,0,0,0,13-13V300.76a13,13,0,0,0-13-13H353.92l-21.58-38.86a3.76,3.76,0,1,0-6.58,3.65l19.55,35.21H324.18a13,13,0,0,0-13,13V325.6a13,13,0,0,0,13,13h49.33l3.34,6H327.94c-7,0-11.25,1.17-13.88,3.8-2.87,2.86-2.87,6.67-2.87,9.18v24.84a13,13,0,0,0,13,13h80.88l3.34,6H324.18a13,13,0,0,0-13,13v24.84a13,13,0,0,0,13,13H436.6L463,499.8a3.76,3.76,0,1,0,6.58-3.65L445.2,452.22h30.62a13,13,0,0,0,13-13V414.4a13,13,0,0,0-13-13H417l-3.34-6h62.16a13,13,0,0,0,13-13V357.58a13,13,0,0,0-13-13H385.46l-3.34-6h23.16Z" transform="translate(-240 -210)"/></g></g></svg>