<svg xmlns="http://www.w3.org/2000/svg" viewBox="0 0 327.04 326.59"><defs><style>.cls-1{fill:#2cbbce;}.cls-2{fill:#30373f;}.cls-3{fill:#2dbbce;}.cls-4{fill:#f26345;}.cls-5{fill:#f06245;}.cls-6{fill:#f16345;}</style></defs><g id="Layer_2" data-name="Layer 2"><g id="Layer_1-2" data-name="Layer 1"><path class="cls-1" d="M.07,163.56c0-4.19,0-8.37,0-12.55C0,138.69,2.75,126.86,6.3,115.21A163,163,0,0,1,71.54,27.37,160.25,160.25,0,0,1,113.6,7.11c14-4.36,28.34-7.4,43.15-7.09,9.41.2,18.91-.18,28.2,1a159.41,159.41,0,0,1,86.74,39.63c26.62,23.57,43.66,52.86,51.54,87.49a156.52,156.52,0,0,1,3.44,45.4c-1.94,29-10.74,55.73-26.95,79.9Q266.09,303.61,208,320.6c-14.5,4.23-29.32,5.8-44.48,6a161.79,161.79,0,0,1-114.1-45.35,163,163,0,0,1-38.25-56.29,147.09,147.09,0,0,1-11-43.69c-.47-5.86-.07-11.8-.07-17.69Zm319.2-.34C319.33,77.46,249.6,7.77,163.59,7.63,77.77,7.5,8,77.07,7.73,163c-.26,85.67,69.84,155.73,155.79,155.69S319.21,249.06,319.27,163.22Z"/><path class="cls-2" d="M230,283.31c1.45,2.68,2.91,5.35,4.34,8,1.3,2.44.82,4.65-1.21,5.8s-4.16.35-5.55-2.08c-1.51-2.65-3-5.32-4.47-8l-4.07-7c-.31-.68-.56-1.38-.92-2-5.35-9.66-10.75-19.3-16-29a3.39,3.39,0,0,0-3.47-2q-55.63.09-111.27,0c-9.14,0-14.53-5.33-14.56-14.43q0-11.53,0-23.07a16.92,16.92,0,0,1,.43-4.21c1.71-6.61,6.68-10.11,14.25-10.11h84.61a36.4,36.4,0,0,1-2-3.71c-.76-1.95-2.07-2.44-4.12-2.42-13.54.1-27.07,0-40.61,0-12.86,0-25.72,0-38.58,0-7.86,0-13.66-5.23-13.86-12.86-.25-9.32-.18-18.66,0-28,.09-5.15,2.64-8.49,7.66-9.78a44.33,44.33,0,0,1,10.41-1.18c15.4-.12,30.8-.05,46.21-.05h2.66a33.86,33.86,0,0,1-1.91-3.56c-.77-2.06-2.12-2.57-4.29-2.55-15.47.11-31,.09-46.43,0-8.59,0-14.27-5.43-14.39-13.8-.11-8.21,0-16.43,0-24.64a13.23,13.23,0,0,1,2.67-8.14,13,13,0,0,1,11-5.35c6.92,0,13.84,0,21.23,0-4.85-8.57-9.49-16.8-14.14-25l-4-7.22c-.63-1.24-1.3-2.48-1.9-3.75a3.78,3.78,0,0,1,1.31-5.06,3.85,3.85,0,0,1,5.29,1.18c.74,1.1,1.35,2.3,2,3.45l4.15,7.19c.35.74.65,1.51,1,2.22C106,60.5,110.62,68.7,115.09,77A3.83,3.83,0,0,0,119,79.34q60.35-.11,120.68,0c9.25,0,14.59,5.34,14.62,14.62,0,7.54.11,15.09-.06,22.63a18.34,18.34,0,0,1-1.41,7.14c-2.61,5.53-7.43,7.57-13.39,7.56q-45.75-.11-91.51-.12h-2.7a31.54,31.54,0,0,1,1.91,3.49c.81,2.1,2.19,2.66,4.45,2.65q44-.13,87.93,0c9.21,0,14.68,5.43,14.71,14.6q0,11.41,0,22.85a17.67,17.67,0,0,1-.47,4.42c-1.67,6.31-6.75,10.06-13.65,10.07q-30,0-59.89,0H177.5a31,31,0,0,1,1.89,3.48c.81,2.11,2.18,2.68,4.45,2.66,18.61-.11,37.23-.07,55.85-.05,9.13,0,14.54,5.39,14.57,14.45q0,11.42,0,22.85c0,9-5.49,14.51-14.53,14.52s-18.24,0-27.36,0h-2.68c3.7,6.65,7.12,12.85,10.58,19,1.94,3.45,3.93,6.85,5.9,10.28C227.44,278.68,228.7,281,230,283.31ZM119.54,101c-2.25-4.13-4.55-8.22-6.7-12.39a2.84,2.84,0,0,0-3-1.69c-7.55.07-15.09,0-22.64,0-4.64,0-6.73,2.07-6.73,6.66q0,11.53,0,23.06c0,4.68,2,6.67,6.68,6.67q21.19,0,42.37,0c.69,0,1.39-.09,2.51-.17l-8.28-14.71Zm32.35,58.23c-2.29-4.19-4.63-8.34-6.83-12.57a3,3,0,0,0-3.16-1.79c-17.19.05-34.37,0-51.55.05a43.39,43.39,0,0,0-5.81.38c-3.4.45-4.07,1.26-4.08,4.65q0,12,0,23.95c0,5.67,1.84,7.52,7.5,7.52H164.5l-8.32-14.28Zm9.23.08q2.12,3.93,4.25,7.85c2.4,4.38,4.75,8.79,7.28,13.11a3.15,3.15,0,0,0,2.37,1.1q32.53.09,65.06,0c4.33,0,6.45-2.2,6.46-6.53q0-11.43,0-22.85c0-5.2-1.95-7.13-7.22-7.13h-83.9c-.7,0-1.4.07-2.51.13Zm-32.38-58.25q2.14,3.86,4.28,7.71c2.31,4.26,4.69,8.48,6.9,12.79a3,3,0,0,0,3.14,1.82q48.42-.08,96.86,0c4.62,0,6.61-2,6.62-6.74q0-11.19,0-22.39c0-5.34-1.92-7.26-7.27-7.26H120.7Zm67.7,138.31c-.31-.73-.39-1-.53-1.27-6.27-11.29-12.56-22.58-18.77-33.9-.71-1.29-1.68-1.23-2.81-1.23H87.08c-4.52,0-6.57,2.05-6.58,6.58q0,11.21,0,22.4c0,5.56,1.82,7.41,7.34,7.41h108.6ZM185.35,203c.29.7.38,1,.52,1.23,6.23,11.23,12.49,22.44,18.69,33.68a2.62,2.62,0,0,0,2.68,1.47c10.91,0,21.82,0,32.73,0,4.53,0,6.56-2,6.57-6.59q0-11.42,0-22.84c0-5-1.91-6.92-6.9-6.92H185.35Z"/><path class="cls-1" d="M89.53,47.05l4,7.22a126.7,126.7,0,0,0-42.71,45.1C34,129.45,29.46,161.44,38,194.78c9,35.5,29.74,62.72,61.69,80.87,27.62,15.7,57.28,20.34,88.54,14.47a133.26,133.26,0,0,0,30.82-10l4.07,7c-6.41,2.46-12.75,5.16-19.25,7.33A128.28,128.28,0,0,1,172,300.35a136.54,136.54,0,0,1-51.5-6.46,138,138,0,0,1-80.67-69.58,137.47,137.47,0,0,1-13.66-47.73A137.45,137.45,0,0,1,68.47,63.34,127.79,127.79,0,0,1,89.53,47.05Z"/><path class="cls-3" d="M100.4,50.06l-4.15-7.19c7.94-3.43,15.71-7.38,23.87-10.18a130.26,130.26,0,0,1,49.2-6.79,138.72,138.72,0,0,1,40.08,7.85A136.07,136.07,0,0,1,264.21,70,133.32,133.32,0,0,1,299,141.6c6.2,40.5-3.88,76.84-29.47,108.79A132.75,132.75,0,0,1,230,283.31c-1.26-2.31-2.52-4.63-3.79-6.94l1.73-1c25.46-14.74,44-35.65,55.23-62.77,12.57-30.49,13.44-61.56,2.37-92.71-9.94-28-27.6-50-52.71-65.94a126.83,126.83,0,0,0-57.6-19.51c-17.65-1.54-35,.06-51.72,5.88C115.6,43,108.08,46.77,100.4,50.06Z"/><path class="cls-4" d="M128.74,101.08,120.7,87H239.27c5.35,0,7.27,1.92,7.27,7.26q0,11.2,0,22.39c0,4.71-2,6.74-6.62,6.74q-48.43,0-96.86,0a3,3,0,0,1-3.14-1.82c-2.21-4.31-4.59-8.53-6.89-12.79,10.89,0,21.79,0,32.68,0,3,0,4.77-1.54,4.78-3.91s-1.77-3.82-4.81-3.82Q147.22,101,128.74,101.08Zm97.41-2.92a6.91,6.91,0,0,0-6.89,6.78,7.06,7.06,0,0,0,7,7,6.94,6.94,0,0,0,6.82-6.86A6.77,6.77,0,0,0,226.15,98.16Z"/><path class="cls-4" d="M196.44,239.39H87.84c-5.52,0-7.34-1.85-7.34-7.41q0-11.21,0-22.4c0-4.53,2.06-6.58,6.58-6.58h87.25c1.13,0,2.1-.06,2.81,1.23,6.21,11.32,12.5,22.61,18.77,33.9C196.05,238.37,196.13,238.66,196.44,239.39Zm-61.39-21.15c-10.46,0-20.92,0-31.39,0-2.61,0-4.14,1.4-4.24,3.63s1.55,3.74,4,4a13.68,13.68,0,0,0,1.57,0q30,0,60.08,0a8.84,8.84,0,0,0,3.46-.66c1.65-.73,2.07-2.26,1.77-4a3.35,3.35,0,0,0-3-2.92,16.76,16.76,0,0,0-2.46-.09Z"/><path class="cls-5" d="M161.12,159.33l-8.21-14.27c1.11-.06,1.81-.13,2.51-.13h83.9c5.27,0,7.22,1.93,7.22,7.13q0,11.41,0,22.85c0,4.33-2.13,6.52-6.46,6.53q-32.54,0-65.06,0a3.15,3.15,0,0,1-2.37-1.1c-2.53-4.32-4.88-8.73-7.28-13.11,3.17-.2,4.88-1.59,4.87-4s-1.89-3.9-5.13-3.92C163.78,159.27,162.45,159.31,161.12,159.33ZM233.06,163a6.88,6.88,0,0,0-6.8-6.88,7.05,7.05,0,0,0-7,6.72,7,7,0,0,0,6.85,7.08A6.82,6.82,0,0,0,233.06,163Z"/><path class="cls-5" d="M156.18,167.16l8.32,14.28H88c-5.66,0-7.5-1.85-7.5-7.52q0-12,0-23.95c0-3.39.68-4.2,4.08-4.65a43.39,43.39,0,0,1,5.81-.38c17.18,0,34.36,0,51.55-.05a3,3,0,0,1,3.16,1.79c2.2,4.23,4.54,8.38,6.83,12.57q-23.41,0-46.82,0c-1,0-2.33-.17-3,.36A7.08,7.08,0,0,0,99.31,163a3.21,3.21,0,0,0,2.48,3.75,10.63,10.63,0,0,0,3.09.34Q130.53,167.16,156.18,167.16Z"/><path class="cls-6" d="M185.35,203h54.29c5,0,6.9,1.92,6.9,6.92q0,11.43,0,22.84c0,4.55-2,6.58-6.57,6.59-10.91,0-21.82,0-32.73,0a2.62,2.62,0,0,1-2.68-1.47c-6.2-11.24-12.46-22.45-18.69-33.68C185.73,204,185.64,203.74,185.35,203Zm47.71,17.78a6.88,6.88,0,0,0-6.92-6.76,7,7,0,0,0-6.89,6.81,6.87,6.87,0,0,0,6.95,7A6.79,6.79,0,0,0,233.06,220.82Z"/><path class="cls-4" d="M123.74,108.48,132,123.19c-1.12.08-1.82.17-2.51.17q-21.18,0-42.37,0c-4.68,0-6.67-2-6.68-6.67q0-11.53,0-23.06C80.47,89,82.56,87,87.2,87c7.55,0,15.09,0,22.64,0a2.84,2.84,0,0,1,3,1.69c2.15,4.17,4.45,8.26,6.7,12.38-5.06,0-10.13-.06-15.19.06-1.26,0-2.93.3-3.64,1.12a5.33,5.33,0,0,0-1,4c.37,2,2.28,2.58,4.18,2.59q8.6,0,17.2,0A25.88,25.88,0,0,0,123.74,108.48Z"/></g></g></svg>