<svg xmlns="http://www.w3.org/2000/svg" viewBox="0 0 530.74 392.68"><defs><style>.cls-1{fill:#2dbbce;}.cls-2{fill:#f2684b;}.cls-3{fill:#2db9cf;}.cls-4{fill:#f26548;}.cls-5{fill:#f26749;}.cls-6{fill:#f26649;}.cls-7{fill:#2eb9cf;}.cls-8{fill:#2fb9d0;}.cls-9{fill:#f26446;}.cls-10{fill:#313740;}.cls-11{fill:#2dbbcf;}.cls-12{fill:#f26345;}.cls-13{fill:#f16346;}.cls-14{fill:#f16345;}</style></defs><g id="Layer_2" data-name="Layer 2"><g id="Layer_1-2" data-name="Layer 1"><path class="cls-1" d="M110.52,159c-1.42-17.49,1.74-35.19,7.82-52.47a156.89,156.89,0,0,1,33-55.19c24.08-26,53.59-42.62,88.43-48.66,31.51-5.46,62.51-2.69,92,10.63,42.18,19.05,71.34,50.29,86.6,94,12.66,36.22,12,72.65-2.05,108.22-18.23,46.26-51.39,77.6-98.61,93.7-15.66,5.34-31.8,7.52-48.41,7.73a157.78,157.78,0,0,1-130.3-66.23,159.56,159.56,0,0,1-26.24-59.64A119.94,119.94,0,0,1,110.52,159ZM268.68,309.22c83.22.08,151-67.54,150.9-150.67S352.26,8.16,268.94,7.9c-83.12-.25-150.83,67.23-151,150.54C117.69,241.47,185.36,309.14,268.68,309.22Z"/><path class="cls-2" d="M361.55,363.44c2.8-3.62,5.62-7.24,8.41-10.86,2.54-3.28,5.13-6.53,7.57-9.89a3.91,3.91,0,0,1,3.74-1.92c2.44.15,4.9,0,8.19,0l-19.92,24.42L391,391.74c-3.85,0-7,.14-10.17-.08a4.41,4.41,0,0,1-2.56-1.81c-5.6-7.23-11.12-14.52-17.25-21.73V391.6h-8.71V341h8.43v22.16Z"/><path class="cls-3" d="M.07,380.93c5.44,3.55,10.93,5.08,17,4.12,4.6-.73,7.28-3.53,6.33-7.31a9.47,9.47,0,0,0-3.29-4.64c-1.8-1.45-4.12-2.24-6.18-3.39-2.63-1.47-5.33-2.86-7.81-4.55C1.49,362-.62,357.6.16,352c.75-5.36,4.27-8.53,9-10.33,6.28-2.37,12.75-2.21,19.24-.73,1.62.37,2.37,1.18,2.22,3s0,3.89,0,5.67c-3.34-.82-6.37-2-9.47-2.2a18.92,18.92,0,0,0-8.24,1.22c-4.75,1.95-5.19,7.08-1.06,10.11,1.88,1.39,4.15,2.23,6.15,3.46,3.52,2.16,7.39,4,10.38,6.75,7.75,7.16,5.3,18.48-4.64,22-7.3,2.6-14.7,1.93-21.95-.47a2.79,2.79,0,0,1-1.63-1.89C0,386.17.07,383.75.07,380.93Z"/><path class="cls-4" d="M410.9,392.54c-11.16.09-18.48-7.13-18.57-18.31-.1-12.2,7.11-19.69,19-19.78,11.6-.09,18.31,6.66,18.4,18.52C429.85,385.08,422.75,392.45,410.9,392.54Zm10.42-18.67c-.21-1.56-.32-3.06-.63-4.52-1.08-5.15-4.26-8-9-8.12s-9,2.54-10,7.44a25.78,25.78,0,0,0,0,9.71c.9,4.71,4.7,7.31,9.42,7.36s8.11-2.29,9.4-6.91A46.69,46.69,0,0,0,421.32,373.87Z"/><path class="cls-5" d="M503.69,365.2c0-2.32-.11-4.28.07-6.21a2.72,2.72,0,0,1,1.38-1.8,24.08,24.08,0,0,1,18.11-1.79,9.73,9.73,0,0,1,7.32,9.41c.31,8.83.09,17.67.09,26.72h-7.79c-.1-1.4-.2-2.74-.34-4.76-3.28,4.3-7.14,6.15-12,5.72-6-.53-9.41-3.52-10.21-9.06s1.76-10.66,7.12-12.33c4-1.26,8.28-1.71,12.45-2.4,3-.5,3.41-1.1,2.25-4a5.7,5.7,0,0,0-4.92-3.71,16.23,16.23,0,0,0-10.81,2.46C505.6,363.93,504.85,364.45,503.69,365.2ZM522.32,374c-3.29.55-6.65.92-9.91,1.71s-4.47,2.92-4,6.13c.36,2.48,2.55,4.19,5.51,4.31C519.84,386.34,523.68,381,522.32,374Z"/><path class="cls-6" d="M495.43,375.89H470.8c-.11,3.27.8,6,3.31,7.76,6.09,4.29,12.13,2.4,18.37-.95a42.11,42.11,0,0,1-.08,5.57,3,3,0,0,1-1.61,2,25.37,25.37,0,0,1-18.72,1.08,12.5,12.5,0,0,1-3.68-2.06c-10.35-8-7.93-28,4-33.34,10.59-4.72,20.89.9,22.51,12.35C495.26,370.64,495.25,373.08,495.43,375.89Zm-8.58-6.2c.18-5.35-2.62-8.81-7-9-4.67-.18-8.64,3.79-8.87,9Z"/><path class="cls-7" d="M71.93,375.94H47.81c-.9,9.43,8.48,12.5,21.4,6.94a41,41,0,0,1-.07,5.34,3.07,3.07,0,0,1-1.55,2,25,25,0,0,1-19,1,13.48,13.48,0,0,1-8.13-8.2,24,24,0,0,1-.36-17.16c2.79-7.87,10.38-12.37,18.82-11.3,7.4.95,12.11,6.26,13,14.86C72.11,371.44,71.93,373.51,71.93,375.94Zm-8.32-6.29c0-5.54-2.71-8.84-7.18-8.94-4.63-.11-8.59,3.93-8.63,8.94Z"/><path class="cls-3" d="M176.36,375.9H152.13a8.77,8.77,0,0,0,3.47,7.94c4,3.17,8.66,2.92,18.17-.95a39.72,39.72,0,0,1-.08,5.37,3.07,3.07,0,0,1-1.63,2c-6.19,2.73-12.62,3.32-19,.89a15,15,0,0,1-6-4.54c-6.58-8.21-4.62-23,3.73-29a16.57,16.57,0,0,1,17.19-1.66c5.56,2.48,7.74,7.46,8.28,13.22C176.53,371.28,176.36,373.44,176.36,375.9Zm-8.23-6.25c.33-4.95-2.37-8.53-6.61-8.92-4.8-.43-8.87,3.4-9.34,8.92Z"/><path class="cls-3" d="M260.85,375.87H236.64c-.52,9.51,8.09,12.34,21.45,7.11a39.45,39.45,0,0,1-.08,5.35,3,3,0,0,1-1.63,1.94c-6.2,2.68-12.68,3.39-18.94.76a14.7,14.7,0,0,1-6.84-5.95c-4.09-7.5-4.2-15.4.32-22.85,4-6.56,11.63-9.21,19.26-7.19,6.24,1.65,10.26,7.29,10.66,15C260.93,371.85,260.85,373.63,260.85,375.87Zm-8.16-6.2c-.11-5.77-3.13-9.14-7.79-9a8.74,8.74,0,0,0-8.11,9Z"/><path class="cls-3" d="M104.25,355.23a75.43,75.43,0,0,1,7.77.1c.76.08,1.76,1.19,2,2,2.69,8.13,5.24,16.31,7.84,24.48.16.52.36,1,.67,1.92,2.87-8.66,5.74-16.92,8.31-25.27.76-2.49,1.75-3.69,4.47-3.31a39.92,39.92,0,0,0,5.41.05c-.38,1.17-.61,2-.93,2.87-4,10.45-8.16,20.88-12.1,31.37-.7,1.87-1.63,2.34-3.5,2.31-6.44-.07-6.45,0-8.71-6.09C111.82,375.73,108.14,365.76,104.25,355.23Z"/><path class="cls-7" d="M321.86,362.27c-3.89-.43-7.53-1.06-11.18-1.16a4,4,0,0,0-4.39,3.62c-.26,2.38,1.55,3.48,3.43,4.31,2.84,1.26,5.79,2.31,8.54,3.72a9.33,9.33,0,0,1,5.44,9.44c-.23,4.14-2.56,6.85-6.14,8.45-6,2.66-12.12,2.42-18.22.47a3.07,3.07,0,0,1-1.54-2.19,52.19,52.19,0,0,1-.07-6.08c1,.51,1.65.88,2.33,1.25,3.8,2.06,7.85,2.88,12,1.51a5,5,0,0,0,3-3.12c.16-1.21-1-2.88-2.05-3.88s-2.5-1.22-3.79-1.8a64.77,64.77,0,0,1-6.65-3.08,9.44,9.44,0,0,1-.5-16.24c5.74-3.85,12.09-3.72,18.49-1.87a2.18,2.18,0,0,1,1.24,1.55C322,359.1,321.86,361.05,321.86,362.27Z"/><path class="cls-3" d="M290.33,362.82c-2.77-.75-5.09-1.51-7.46-1.95a10.81,10.81,0,0,0-3.91.24c-2,.4-3.84,1.27-4.07,3.66s1.53,3.47,3.4,4.3c2.92,1.3,5.94,2.4,8.77,3.87a9.25,9.25,0,0,1,5.21,9.29c-.21,4-2.47,6.7-5.93,8.3-5.94,2.74-12.09,2.55-18.2.63a3.29,3.29,0,0,1-1.67-2.36,39.68,39.68,0,0,1-.08-5.74c.93.43,1.59.68,2.18,1a14.84,14.84,0,0,0,11.17,1.78,6.54,6.54,0,0,0,4-3.35c.8-2-.92-3.51-2.73-4.35-2.74-1.26-5.59-2.25-8.31-3.53-3.33-1.56-5.71-4-6.18-7.84-.55-4.58,1.39-7.91,5.31-10.05,5.44-3,11.21-2.87,17-1.21a2.66,2.66,0,0,1,1.46,1.9A45.82,45.82,0,0,1,290.33,362.82Z"/><path class="cls-7" d="M219.32,391.62h-8.08V338.1h8.08Z"/><path class="cls-8" d="M100.92,362.86C93,361.38,89,364.28,88.34,372.15c-.42,5.06-.24,10.16-.31,15.25,0,1.31,0,2.62,0,4.13h-8.2v-36.1H88v6.15c1.27-1.73,1.88-3.09,2.93-3.87a15.91,15.91,0,0,1,5.33-2.88c3.66-.93,4.68.09,4.68,3.83Z"/><path class="cls-3" d="M205.37,362.94c-7.61-1.8-12.21,1.71-12.58,9.45-.26,5.28-.1,10.57-.12,15.85,0,1,0,2.05,0,3.28h-8.21V355.24c2.27,0,4.52-.1,6.75.08.52,0,1.29.94,1.39,1.55a31.28,31.28,0,0,1,.06,4.56c1-1.45,1.54-2.62,2.43-3.31a17.16,17.16,0,0,1,5.17-3.19c3.9-1.17,5.11-.09,5.11,3.86Z"/><path class="cls-9" d="M438.21,355.41h8.18v6.18c1.15-1.62,1.65-2.81,2.54-3.48a17.66,17.66,0,0,1,5.45-3.22c3.82-1.06,4.83,0,4.83,3.9V363c-3.18-.83-6.15-1.35-8.74.86-3,2.53-3.88,5.93-3.93,9.64-.06,5-.05,10-.07,15v3.12h-8.26Z"/><path class="cls-10" d="M333.14,274.77c1.21,2.33,2.39,4.68,3.64,7,1.76,3.25,1.55,5.37-.71,6.6s-4,.24-5.77-2.83c-1.34-2.37-2.73-4.71-4.1-7.06l-3.71-6.76c-5.27-9.57-10.61-19.11-15.76-28.75-1.2-2.24-2.51-3.15-5.18-3.14-30.6.12-61.19.07-91.78.07-5.1,0-10.2.08-15.3,0-8.39-.16-13.56-5.36-13.62-13.71-.06-7.64,0-15.28,0-22.92a16.35,16.35,0,0,1,.36-3.64c1.52-6.3,6.48-9.95,13.64-9.95q39.38,0,78.75,0h3.07c-2.27-5.9-2.27-5.9-7.84-5.9H195.74c-9.82,0-14.88-5-14.89-14.77,0-7.54,0-15.09,0-22.63,0-7.81,3.14-11.42,10.86-12.49a30.59,30.59,0,0,1,4-.26l46.74-.06h3.3a20.54,20.54,0,0,1-1.16-2.36c-1-3.09-3.09-3.83-6.24-3.71-6.79.26-13.59.08-20.39.08-7.84,0-15.68,0-23.51,0-6.68,0-12.39-3.52-12.86-9.61a199.14,199.14,0,0,1,0-31c.51-6.26,6.15-9.59,13.11-9.65,6.49-.07,13,0,20,0L201,53.06l-3.87-6.78c-.61-1.27-1.24-2.52-1.81-3.8-.87-2-.61-3.79,1.32-4.92s3.83-.67,5.15,1.25c.75,1.08,1.39,2.23,2.08,3.35l3.86,6.72c.33.77.59,1.58,1,2.31,4.34,7.84,8.76,15.63,13,23.52a4.22,4.22,0,0,0,4.35,2.6c29.18-.09,58.36-.06,87.55-.06,9.82,0,19.64-.07,29.46,0,8.42.08,13.57,5.3,13.64,13.69.06,7.73.09,15.47,0,23.2-.1,8-5.33,13.33-13.36,13.35-23.14.07-46.27,0-69.41,0H251.55c1.85,5.66,2.18,5.92,7.41,5.92h82.16c1.23,0,2.46,0,3.68.12a12.4,12.4,0,0,1,11.68,11.74c.27,8.86.08,17.73.06,26.6a8,8,0,0,1-.39,2.21c-1.73,6.22-6.59,9.61-13.94,9.62q-28.18,0-56.38,0h-3.09c1.95,5.79,2.1,5.9,7.51,5.9,17.56,0,35.13,0,52.69,0,8.37,0,13.62,5.29,13.69,13.62q.09,11.33,0,22.64c-.06,8.6-5.35,13.88-14,14s-17.19,0-25.78,0h-3.4c5.49,9.74,10.71,19,15.92,28.21ZM226,98.31c-2-3.82-4.14-7.6-6.08-11.47a3.4,3.4,0,0,0-3.55-2.07c-7.17.1-14.34,0-21.52,0-4.65,0-6.56,1.88-6.58,6.49q0,11,0,22.06c0,4.68,2,6.66,6.75,6.66q20.25,0,40.49,0c.78,0,1.56-.12,2.76-.21l-8.06-14.06Zm31.4,56.42c-2.06-3.8-4.23-7.56-6.15-11.43a3.75,3.75,0,0,0-3.92-2.38c-16.61.09-33.22,0-49.82.07-1.79,0-3.57.21-5.35.36-2.91.24-4,1.85-3.94,4.73.11,7.82,0,15.65.05,23.47,0,4.7,2,6.6,6.77,6.6q35.81,0,71.62,0c.78,0,1.56-.11,2.75-.21-2.72-4.76-5.24-9.15-7.76-13.55Q259.56,158.56,257.43,154.73Zm13.24,7.82c2.07,3.8,4.23,7.56,6.19,11.42a3.57,3.57,0,0,0,3.73,2.23c20.66-.08,41.33,0,62,0,4.59,0,6.58-2,6.6-6.5q0-11,0-22.05c0-4.6-2-6.62-6.5-6.62H261.43c-.77,0-1.55.13-2.81.25l7.86,13.58Zm-31.39-56.66c2.15,4,4.37,7.92,6.4,12a3.55,3.55,0,0,0,3.71,2.24Q296,120,342.6,120c4.52,0,6.56-2,6.58-6.56,0-7.07,0-14.15,0-21.22,0-5.8-1.62-7.43-7.37-7.43H227.35l7.83,13.73ZM300.63,232.3c-.74-1.44-1.18-2.36-1.68-3.25-5.5-9.89-11.05-19.75-16.45-29.7a3.86,3.86,0,0,0-4-2.31q-41.64.09-83.29,0c-4.93,0-6.9,1.94-6.92,6.83,0,7,0,14,0,20.94,0,5.86,1.57,7.45,7.33,7.45h105Zm-10.44-35a5.76,5.76,0,0,0,.3,1.28c6,10.79,12,21.59,18.08,32.31a3.94,3.94,0,0,0,3,1.38c10.38.1,20.76.08,31.13.06,4.64,0,6.49-1.88,6.51-6.55,0-7.07,0-14.14,0-21.2,0-5.66-1.77-7.43-7.43-7.43H293.08C292.17,197.12,291.27,197.22,290.19,197.27Z"/><path class="cls-1" d="M197.08,46.28,201,53.06a125.62,125.62,0,0,0-53,139.47c14,50.57,60,88,112.7,91.07a125.12,125.12,0,0,0,61.85-11.9l3.71,6.76a130.91,130.91,0,0,1-74.35,12.16c-31.34-3.95-58-17.41-79.84-40.07-19.15-19.86-31.3-43.52-35.17-70.81C129.66,129,146.39,87,185.65,54.08,189.17,51.13,193.25,48.86,197.08,46.28Z"/><path class="cls-11" d="M207.68,48.88l-3.86-6.72a120.41,120.41,0,0,1,35.54-13.53c35.62-7.61,69.19-2.05,100,17.3,31.15,19.59,51,47.75,59.05,83.7s1.84,69.44-17.66,100.56c-11.34,18.09-26.58,32.21-44.8,43.19-.89.53-1.85.93-2.78,1.39l-3.79-6.68a113,113,0,0,0,27-20c29.92-30.27,42.81-66.72,36.2-108.67-7-44.68-32.14-76.87-73.48-95.52-29.25-13.19-59.56-14.18-90-4.08C221.7,42.26,214.78,45.84,207.68,48.88Z"/><path class="cls-12" d="M235.18,98.54l-7.83-13.73H341.82c5.75,0,7.36,1.63,7.37,7.43,0,7.07,0,14.15,0,21.22,0,4.52-2.06,6.56-6.58,6.56q-46.61,0-93.21,0a3.55,3.55,0,0,1-3.71-2.24c-2-4-4.25-8-6.4-12l8.49,0c7.73,0,15.47,0,23.21,0,2.7,0,4.47-1.53,4.51-3.66s-1.6-3.71-4.37-3.71C259.14,98.46,247.16,98.51,235.18,98.54Zm94.35,10.29a6.61,6.61,0,1,0-6.8-6.46A6.65,6.65,0,0,0,329.53,108.83Z"/><path class="cls-13" d="M300.63,232.3h-105c-5.76,0-7.32-1.59-7.33-7.45,0-7,0-14,0-20.94,0-4.89,2-6.82,6.92-6.83q41.66,0,83.29,0a3.86,3.86,0,0,1,4,2.31c5.4,10,10.95,19.81,16.45,29.7C299.45,229.94,299.89,230.86,300.63,232.3ZM241,219.25H269.3c.75,0,1.51,0,2.26,0,2.28-.16,3.87-1.28,3.87-3.65s-1.46-3.57-3.79-3.74c-.47,0-.95,0-1.42,0H212.15a13.11,13.11,0,0,0-2.26.1,3.44,3.44,0,0,0-3.15,3.72,3.36,3.36,0,0,0,3.08,3.48,17.65,17.65,0,0,0,2.82.12Z"/><path class="cls-14" d="M266.48,154.81l-7.86-13.58c1.26-.12,2-.25,2.81-.25h81.25c4.51,0,6.49,2,6.5,6.62q0,11,0,22.05c0,4.54-2,6.49-6.6,6.5-20.66,0-41.33,0-62,0a3.57,3.57,0,0,1-3.73-2.23c-2-3.86-4.12-7.62-6.19-11.42,3.29-.62,4.8-2,4.64-4.21s-2.06-3.55-5.46-3.57C268.73,154.76,267.61,154.8,266.48,154.81Zm69.65,3.55a6.65,6.65,0,0,0-6.65-6.64,6.74,6.74,0,0,0-6.78,6.54,6.72,6.72,0,1,0,13.43.1Z"/><path class="cls-14" d="M261.68,162.38c2.52,4.4,5,8.79,7.76,13.55-1.19.1-2,.21-2.75.21q-35.81,0-71.62,0c-4.8,0-6.76-1.9-6.77-6.6,0-7.82.06-15.65-.05-23.47,0-2.88,1-4.49,3.94-4.73,1.78-.15,3.56-.36,5.35-.36,16.6,0,33.21,0,49.82-.07a3.75,3.75,0,0,1,3.92,2.38c1.92,3.87,4.09,7.63,6.15,11.43q-22.92,0-45.86.05c-3.2,0-5,1.39-5.11,3.69s1.84,3.95,5.12,3.95Q236.63,162.42,261.68,162.38Z"/><path class="cls-14" d="M290.19,197.27c1.08-.05,2-.15,2.89-.15h48.68c5.66,0,7.42,1.77,7.43,7.43,0,7.06,0,14.13,0,21.2,0,4.67-1.87,6.54-6.51,6.55-10.37,0-20.75,0-31.13-.06a3.94,3.94,0,0,1-3-1.38c-6.11-10.72-12.08-21.52-18.08-32.31A5.76,5.76,0,0,1,290.19,197.27Zm45.94,17.19a6.67,6.67,0,0,0-6.69-6.61,6.71,6.71,0,1,0,6.69,6.61Z"/><path class="cls-14" d="M230.23,105.76l8.06,14.06c-1.2.09-2,.21-2.76.21q-20.24,0-40.49,0c-4.73,0-6.73-2-6.75-6.66q0-11,0-22.06c0-4.61,1.93-6.48,6.58-6.49,7.18,0,14.35.05,21.52,0A3.4,3.4,0,0,1,220,86.84c1.94,3.87,4,7.65,6.07,11.47-5,0-10,.06-15,.14-2.82,0-4.44,1.4-4.45,3.62s1.7,3.73,4.42,3.75C217.44,105.86,223.83,105.78,230.23,105.76Z"/></g></g></svg>